<?xml version="1.0" standalone="no"?><!DOCTYPE svg PUBLIC "-//W3C//DTD SVG 1.1//EN" "http://www.w3.org/Graphics/SVG/1.1/DTD/svg11.dtd"><svg class="icon" width="48px" height="48.00px" viewBox="0 0 1024 1024" version="1.1" xmlns="http://www.w3.org/2000/svg"><path d="M930.88 698.144h-93.056v-46.528h-46.56v325.824H232.704V651.616H186.176v46.528H93.088v-46.528H46.528v304.64C46.528 993.632 76.8 1024 114.016 1024h795.936a67.648 67.648 0 0 0 67.488-67.744v-304.64H930.88v46.528z m0 46.528v93.12h-93.056v-93.12h93.056z m-744.704 0v93.12H93.088v-93.12h93.088z m-93.088 211.584v-71.936h93.088v93.12H114.016a21.12 21.12 0 0 1-20.928-21.184z m816.864 21.184h-72.128v-93.12h93.056v71.936a21.088 21.088 0 0 1-20.928 21.184zM93.088 465.408h93.088v46.56h46.528v-46.56h558.56v46.56h46.56v-46.56h93.056v46.56h46.56V67.68a67.648 67.648 0 0 0-67.488-67.712H114.016a67.68 67.68 0 0 0-67.488 67.712v444.288h46.56v-46.56z m0-46.528v-93.088h93.088v93.088H93.088z m93.088-139.648H93.088V186.144h93.088v93.088z m651.648-93.088h93.056v93.088h-93.056V186.144z m0 232.736v-93.088h93.056v93.088h-93.056z m72.128-372.352c11.552 0 20.928 9.504 20.928 21.152v71.936h-93.056V46.528h72.128z m-118.688 0V418.88H232.704V46.528h558.56z m-677.248 0h72.16v93.088H93.088V67.68c0-11.68 9.408-21.152 20.928-21.152zM0 558.496h1024v46.56H0z" fill="#F6C672" /></svg>