<?xml version="1.0" standalone="no"?><!DOCTYPE svg PUBLIC "-//W3C//DTD SVG 1.1//EN" "http://www.w3.org/Graphics/SVG/1.1/DTD/svg11.dtd"><svg class="icon" width="256px" height="256.00px" viewBox="0 0 1024 1024" version="1.1" xmlns="http://www.w3.org/2000/svg"><path d="M1012.0704 625.4848a15.0528 15.0528 0 0 1 11.6992 17.536c-21.76 123.136-122.4704 215.04-243.0464 221.952v90.9312h58.1888a14.848 14.848 0 0 1 14.5408 15.104c0 8.32-6.5024 15.0784-14.5408 15.0784h-145.4848a14.848 14.848 0 0 1-14.5408-15.104 14.848 14.848 0 0 1 14.5408-15.104h58.1888v-90.9056c-120.4736-6.8864-221.1584-98.688-242.9696-221.696a15.0528 15.0528 0 0 1 11.6736-17.536 14.592 14.592 0 0 1 16.9472 12.0832c20.1472 113.664 116.1472 197.376 228.9152 197.376 112.8448 0 208.896-83.84 228.9664-197.6064a14.592 14.592 0 0 1 16.9216-12.1088zM448.0512 56.9088c95.1808 0 183.3984 30.7712 255.9488 83.2-62.5152 23.04-109.7472 79.744-121.4208 148.992a253.2096 253.2096 0 0 0-134.528-38.656c-144.3328 0-261.376 121.344-261.376 271.0272 0 149.7088 117.0432 271.0016 261.376 271.0016 36.8896 0 71.9872-7.9104 103.7824-22.1952 10.0608 13.1584 21.248 25.4464 33.4848 36.608a270.336 270.336 0 0 0 152.1664 69.1712c-78.08 68.608-179.072 110.0032-289.4336 110.0032C200.6272 986.0608 0 778.0864 0 521.472 0 264.9088 200.6272 56.8832 448.0512 56.8832z m177.4592 663.5264c34.2016 40.8064 84.5568 66.7136 140.672 66.7136a179.456 179.456 0 0 0 55.168-8.6528 464.896 464.896 0 0 1-31.2832 43.0592 216.3712 216.3712 0 0 1-23.8848 1.3824c-66.4064 0-126.8992-30.5408-167.7312-79.7952 9.4976-6.9632 18.56-14.5408 27.0592-22.7072zM766.208 141.2864c96.4352 0 174.592 81.0752 174.592 181.1712v271.2576c0 100.0448-78.1824 181.1456-174.592 181.1456-96.4608 0-174.592-81.0496-174.592-181.1456V322.4576c0-100.0704 78.1568-181.1712 174.592-181.1712z m-318.08 186.624c51.328 0 97.8688 21.5808 131.6608 56.448v209.3568c0 19.456 2.816 38.272 7.9872 56.0128-8.3712 9.8048-17.664 18.688-27.776 26.5728a235.6224 235.6224 0 0 1-11.0848-40.704 26.6496 26.6496 0 0 0-25.9328-22.4 25.6768 25.6768 0 0 0-7.7824 1.2288 117.504 117.504 0 0 0 44.928-92.9536c0-64.0512-50.2272-116.1472-112-116.1472-61.7728 0-112.0256 52.1216-112.0256 116.1472 0 64.0512 50.2528 116.1472 112.0256 116.1472 19.9424 0 38.656-5.4528 54.912-14.9504a27.9552 27.9552 0 0 0-6.016 22.8608c3.5072 19.6864 9.0368 38.8864 16.4352 57.2672a179.7632 179.7632 0 0 1-65.3312 12.2624c-102.9888 0-186.7008-86.8608-186.7008-193.5872 0-106.752 83.712-193.5872 186.7008-193.5872z" fill="#F6C672" /></svg>